<svg xmlns="http://www.w3.org/2000/svg" width="132" height="96" viewBox="0 0 132 96" version="1.1"><path d="M 65.850 40.487 C 55.593 43.391, 46.593 45.983, 45.850 46.249 C 45.108 46.514, 46.750 47.409, 49.500 48.238 C 54.171 49.646, 54.753 49.617, 58.347 47.803 C 60.463 46.734, 62.380 46.046, 62.607 46.274 C 62.834 46.501, 61.260 47.481, 59.108 48.451 L 55.195 50.216 56.788 54.858 L 58.382 59.500 59.441 55.226 C 60.367 51.489, 61.191 50.563, 66 47.858 C 71.939 44.517, 71.804 45.194, 65.729 49.217 L 61.957 51.713 68.212 55.824 C 71.652 58.084, 74.755 59.611, 75.108 59.217 C 75.461 58.823, 78.543 53.213, 81.958 46.750 C 87.062 37.089, 87.840 35.018, 86.333 35.104 C 85.325 35.161, 76.108 37.583, 65.850 40.487 M 60.560 55.618 C 59.697 59.054, 60.043 59.240, 63.015 56.939 C 65.121 55.308, 65.271 54.863, 64 54.023 C 61.751 52.535, 61.278 52.754, 60.560 55.618" stroke="none" fill="#ffffff" fill-rule="evenodd"/><path d="M 59.929 13.308 C 45.502 17.386, 35.441 29.639, 34.241 44.592 C 32.702 63.758, 46.964 80.406, 66.095 81.775 C 93.689 83.749, 112.263 56.258, 100.069 31.488 C 92.900 16.926, 75.311 8.959, 59.929 13.308 M 65.850 40.487 C 55.593 43.391, 46.593 45.983, 45.850 46.249 C 45.108 46.514, 46.750 47.409, 49.500 48.238 C 54.171 49.646, 54.753 49.617, 58.347 47.803 C 60.463 46.734, 62.380 46.046, 62.607 46.274 C 62.834 46.501, 61.260 47.481, 59.108 48.451 L 55.195 50.216 56.788 54.858 L 58.382 59.500 59.441 55.226 C 60.367 51.489, 61.191 50.563, 66 47.858 C 71.939 44.517, 71.804 45.194, 65.729 49.217 L 61.957 51.713 68.212 55.824 C 71.652 58.084, 74.755 59.611, 75.108 59.217 C 75.461 58.823, 78.543 53.213, 81.958 46.750 C 87.062 37.089, 87.840 35.018, 86.333 35.104 C 85.325 35.161, 76.108 37.583, 65.850 40.487 M 60.560 55.618 C 59.697 59.054, 60.043 59.240, 63.015 56.939 C 65.121 55.308, 65.271 54.863, 64 54.023 C 61.751 52.535, 61.278 52.754, 60.560 55.618" stroke="none" fill="#f25c26" fill-rule="evenodd"/></svg>