<svg xmlns="http://www.w3.org/2000/svg" width="96" height="89" viewBox="0 0 96 89" version="1.1"><path d="M 30.436 33.305 C 30.161 34.023, 30.062 40.211, 30.218 47.055 L 30.500 59.500 45.924 59.777 C 63.050 60.085, 62.959 60.118, 62.985 53.542 L 63 49.584 67.500 54 L 72 58.416 72 46 L 72 33.584 67.500 38 L 63 42.416 63 38.790 C 63 31.823, 63.434 32, 46.362 32 C 34.595 32, 30.818 32.310, 30.436 33.305" stroke="none" fill="#ffffff" fill-rule="evenodd"/><path d="M 43.050 9.047 C 31.525 11.422, 22.161 19.160, 16.702 30.820 C 13.957 36.682, 13.574 38.556, 13.573 46.124 C 13.572 54.070, 13.865 55.343, 17.308 62.309 C 33.556 95.185, 80.625 88.775, 87.983 52.684 C 91.496 35.455, 80.661 16.378, 64.029 10.510 C 58.840 8.680, 48.375 7.950, 43.050 9.047 M 30.436 33.305 C 30.161 34.023, 30.062 40.211, 30.218 47.055 L 30.500 59.500 45.924 59.777 C 63.050 60.085, 62.959 60.118, 62.985 53.542 L 63 49.584 67.500 54 L 72 58.416 72 46 L 72 33.584 67.500 38 L 63 42.416 63 38.790 C 63 31.823, 63.434 32, 46.362 32 C 34.595 32, 30.818 32.310, 30.436 33.305" stroke="none" fill="#0284ff" fill-rule="evenodd"/></svg>